# xmcd
# 
# Track frame offsets:
#     150
#     21501
#     36420
#     52789
#     71838
#     85082
#     101675
#     119479
#     138061
#     152458
#     173427
#     191354
#     208253
#     227791
# 
# Disc length: 3215
# 
# Revision: 0
# Processed by: cddbd v1.5.2PL0 Copyright (c) Steve Scherf et al.
# Submitted via: fre:ac v1.0.17
# 
DISCID=b70c8d0e
DTITLE=Barry Saunders - Far As The Eye Can See
DYEAR=2010
DGENRE=Country
TTITLE0=Far As The Eye Can See
TTITLE1=Bay Of Blue
TTITLE2=Postcard (From Cuba Street)
TTITLE3=One Red Morning
TTITLE4=Black Eyed Girl
TTITLE5=Wind In The Pines
TTITLE6=Maureen
TTITLE7=Rescue Me
TTITLE8=Diamond Joe
TTITLE9=Going Fishing
TTITLE10=A Brave Face
TTITLE11=All Those Things
TTITLE12=To Roberta
TTITLE13=Dark Star
EXTD=
EXTT0=
EXTT1=
EXTT2=
EXTT3=
EXTT4=
EXTT5=
EXTT6=
EXTT7=
EXTT8=
EXTT9=
EXTT10=
EXTT11=
EXTT12=
EXTT13=
PLAYORDER=
